<?xml version="1.0" ?>
<!DOCTYPE svg  PUBLIC '-//W3C//DTD SVG 1.1//EN'  'http://www.w3.org/Graphics/SVG/1.1/DTD/svg11.dtd'>
<!-- Uploaded to: SVG Repo, www.svgrepo.com, Generator: SVG Repo Mixer Tools -->
<svg width="800px" height="800px" viewBox="0 0 48 48" enable-background="new 0 0 48 48" id="_x3C_Layer_x3E_" version="1.1" xml:space="preserve" xmlns="http://www.w3.org/2000/svg" xmlns:xlink="http://www.w3.org/1999/xlink">
<g id="coll_center_x2C__headphones">
<g>
<path d="M6.614,18.023c-0.019,0-0.039-0.001-0.058-0.003c-0.274-0.032-0.471-0.28-0.439-0.554    C7.138,8.649,14.611,2,23.5,2h1c8.876,0,16.348,6.639,17.38,15.442c0.032,0.274-0.164,0.522-0.438,0.555    c-0.266,0.035-0.522-0.164-0.555-0.438C39.914,9.259,32.869,3,24.5,3h-1C15.119,3,8.073,9.269,7.11,17.581    C7.081,17.836,6.865,18.023,6.614,18.023z" fill="#0277BD"/>
<g>
<path d="M22,6.5h4c6.512,0,12.162,3.665,15.018,9.041C39.231,8.064,32.523,2.5,24.5,2.5h-1     c-8.023,0-14.731,5.564-16.518,13.041C9.838,10.165,15.488,6.5,22,6.5z" fill="#B3E5FC"/>
<path d="M41.018,16.041c-0.18,0-0.353-0.098-0.441-0.266C37.701,10.363,32.116,7,26,7h-4     c-6.116,0-11.701,3.363-14.576,8.775c-0.119,0.222-0.383,0.322-0.618,0.233s-0.368-0.339-0.31-0.584C8.385,7.521,15.377,2,23.5,2     h1c8.123,0,15.115,5.521,17.004,13.425c0.059,0.245-0.074,0.495-0.31,0.584C41.136,16.031,41.077,16.041,41.018,16.041z M22,6h4     c5.133,0,9.914,2.233,13.196,6.01C36.439,6.561,30.834,3,24.5,3h-1c-6.334,0-11.939,3.561-14.696,9.01     C12.086,8.233,16.867,6,22,6z" fill="#0277BD"/>
</g>
<path d="M13.479,7.515c-0.146,0-0.292-0.064-0.39-0.187c-0.173-0.215-0.139-0.53,0.076-0.703    C16.073,4.288,19.744,3,23.5,3h1c2.349,0,4.617,0.481,6.743,1.43c0.252,0.113,0.365,0.408,0.252,0.661    c-0.112,0.251-0.407,0.367-0.661,0.252C28.839,4.452,26.708,4,24.5,4h-1c-3.529,0-6.977,1.209-9.708,3.404    C13.7,7.479,13.589,7.515,13.479,7.515z" fill="#FFFFFF"/>
</g>
<g>
<g>
<path d="M6.5,32.5h1v-12h-1c-2.209,0-4,1.791-4,4v4C2.5,30.709,4.291,32.5,6.5,32.5z" fill="#FF80AB"/>
<path d="M5.56,32.889c-0.039,0-0.078-0.004-0.118-0.014C3.416,32.387,2,30.587,2,28.5v-4     c0-2.036,1.372-3.824,3.337-4.348c0.265-0.072,0.541,0.087,0.612,0.354c0.071,0.267-0.087,0.541-0.354,0.612     C4.067,21.526,3,22.917,3,24.5v4c0,1.624,1.101,3.023,2.676,3.402c0.269,0.065,0.434,0.335,0.369,0.604     C5.99,32.735,5.785,32.889,5.56,32.889z" fill="#0277BD"/>
<path d="M3.5,29C3.224,29,3,28.776,3,28.5v-4c0-1.512,0.965-2.848,2.401-3.323     c0.263-0.085,0.545,0.055,0.632,0.317s-0.055,0.545-0.317,0.632C4.689,22.466,4,23.42,4,24.5v4C4,28.776,3.776,29,3.5,29z" fill="#FCE4EC"/>
</g>
<g>
<g>
<path d="M10,34.5H9c-0.829,0-1.5-0.672-1.5-1.5V20c0-0.828,0.671-1.5,1.5-1.5h1c0.829,0,1.5,0.672,1.5,1.5v13      C11.5,33.828,10.829,34.5,10,34.5z" fill="#64FFDA"/>
<path d="M10,35H9c-1.103,0-2-0.897-2-2V20c0-1.103,0.897-2,2-2h1c1.103,0,2,0.897,2,2v13      C12,34.103,11.103,35,10,35z M9,19c-0.551,0-1,0.449-1,1v13c0,0.551,0.449,1,1,1h1c0.551,0,1-0.449,1-1V20c0-0.551-0.449-1-1-1      H9z" fill="#0277BD"/>
</g>
<path d="M8.5,32.5C8.224,32.5,8,32.276,8,32V20c0-0.551,0.449-1,1-1h0.5c0.276,0,0.5,0.224,0.5,0.5     S9.776,20,9.5,20H9v12C9,32.276,8.776,32.5,8.5,32.5z" fill="#FFFFFF"/>
</g>
</g>
<g>
<path d="M27.5,44.5h-7c-0.276,0-0.5-0.224-0.5-0.5s0.224-0.5,0.5-0.5h7c5.173,0,9.958-3.018,12.189-7.689    c0.119-0.249,0.419-0.355,0.667-0.236c0.25,0.119,0.355,0.417,0.236,0.667C38.195,41.258,33.057,44.5,27.5,44.5z" fill="#0277BD"/>
<g>
<path d="M27.5,45.5h-6c-0.552,0-1-0.447-1-1v-1c0-0.553,0.448-1,1-1h6c0.552,0,1,0.447,1,1v1     C28.5,45.053,28.052,45.5,27.5,45.5z" fill="#B3E5FC"/>
<path d="M27.5,46h-6c-0.827,0-1.5-0.673-1.5-1.5v-1c0-0.827,0.673-1.5,1.5-1.5h6c0.827,0,1.5,0.673,1.5,1.5v1     C29,45.327,28.327,46,27.5,46z M21.5,43c-0.276,0-0.5,0.224-0.5,0.5v1c0,0.276,0.224,0.5,0.5,0.5h6c0.276,0,0.5-0.224,0.5-0.5v-1     c0-0.276-0.224-0.5-0.5-0.5H21.5z" fill="#0277BD"/>
</g>
<path d="M21.5,44.5c-0.276,0-0.5-0.224-0.5-0.5v-1h5.5c0.276,0,0.5,0.224,0.5,0.5S26.776,44,26.5,44H22    C22,44.276,21.776,44.5,21.5,44.5z" fill="#FFFFFF"/>
</g>
<g>
<g>
<path d="M41.5,32.5h-1v-12h1c2.209,0,4,1.791,4,4v4C45.5,30.709,43.709,32.5,41.5,32.5z" fill="#FF80AB"/>
<path d="M42.448,32.887c-0.225,0-0.43-0.153-0.485-0.382c-0.065-0.269,0.1-0.539,0.368-0.604     C43.902,31.519,45,30.12,45,28.5v-4c0-1.58-1.064-2.97-2.588-3.38c-0.267-0.072-0.425-0.346-0.353-0.613     c0.071-0.268,0.348-0.426,0.613-0.353C44.631,20.682,46,22.469,46,24.5v4c0,2.083-1.412,3.881-3.433,4.373     C42.527,32.882,42.487,32.887,42.448,32.887z" fill="#0277BD"/>
<path d="M41.5,31.5c-0.276,0-0.5-0.224-0.5-0.5v-9c0-0.276,0.224-0.5,0.5-0.5S42,21.724,42,22v9     C42,31.276,41.776,31.5,41.5,31.5z" fill="#FCE4EC"/>
</g>
<g>
<g>
<path d="M39,34.5h-1c-0.829,0-1.5-0.672-1.5-1.5V20c0-0.828,0.671-1.5,1.5-1.5h1c0.829,0,1.5,0.672,1.5,1.5v13      C40.5,33.828,39.829,34.5,39,34.5z" fill="#64FFDA"/>
<path d="M39,35h-1c-1.103,0-2-0.897-2-2V20c0-1.103,0.897-2,2-2h1c1.103,0,2,0.897,2,2v13      C41,34.103,40.103,35,39,35z M38,19c-0.551,0-1,0.449-1,1v13c0,0.551,0.449,1,1,1h1c0.551,0,1-0.449,1-1V20c0-0.551-0.449-1-1-1      H38z" fill="#0277BD"/>
</g>
<path d="M37.5,32.5c-0.276,0-0.5-0.224-0.5-0.5V20c0-0.551,0.449-1,1-1h0.5c0.276,0,0.5,0.224,0.5,0.5     S38.776,20,38.5,20H38v12C38,32.276,37.776,32.5,37.5,32.5z" fill="#FFFFFF"/>
</g>
</g>
</g>
</svg>